<?xml version="1.0" standalone="no"?>
<!DOCTYPE svg PUBLIC "-//W3C//DTD SVG 20010904//EN"
 "http://www.w3.org/TR/2001/REC-SVG-20010904/DTD/svg10.dtd">
<svg version="1.0" xmlns="http://www.w3.org/2000/svg"
 width="2997.000000pt" height="2997.000000pt" viewBox="0 0 2997.000000 2997.000000"
 preserveAspectRatio="xMidYMid meet">
<metadata>
Created by potrace 1.11, written by Peter Selinger 2001-2013
</metadata>
<g transform="translate(0.000000,2997.000000) scale(0.100000,-0.100000)"
fill="#000000" stroke="none">
<path d="M14489 29966 c-2 -2 -87 -7 -189 -11 -102 -3 -201 -8 -220 -10 -19
-1 -86 -6 -149 -10 -63 -4 -128 -8 -145 -10 -17 -2 -67 -6 -111 -10 -44 -4
-93 -8 -110 -10 -16 -2 -61 -7 -100 -10 -38 -3 -81 -8 -95 -10 -14 -2 -52 -6
-85 -9 -33 -4 -76 -8 -95 -11 -19 -2 -57 -7 -85 -10 -27 -3 -97 -13 -155 -21
-58 -8 -123 -17 -145 -20 -22 -3 -67 -9 -100 -15 -33 -6 -71 -12 -84 -14 -13
-2 -45 -7 -70 -11 -80 -11 -411 -72 -601 -110 -1061 -217 -2200 -590 -3182
-1043 -38 -17 -98 -45 -135 -62 -85 -38 -644 -318 -658 -328 -5 -5 -50 -30
-100 -56 -225 -120 -565 -319 -900 -528 -60 -37 -449 -296 -520 -345 -190
-133 -451 -325 -580 -426 -183 -142 -320 -251 -325 -256 -3 -3 -59 -50 -125
-104 -66 -55 -138 -116 -161 -135 -22 -20 -56 -49 -75 -65 -28 -24 -93 -81
-205 -181 -307 -272 -736 -700 -1093 -1090 -60 -65 -232 -262 -301 -345 -30
-36 -57 -67 -60 -70 -46 -46 -327 -399 -489 -614 -1014 -1349 -1768 -2792
-2285 -4371 -144 -441 -248 -819 -375 -1365 -20 -86 -95 -449 -104 -505 -3
-16 -19 -111 -37 -210 -17 -99 -33 -193 -36 -210 -2 -16 -6 -41 -9 -55 -2 -14
-7 -45 -10 -70 -3 -25 -8 -56 -10 -70 -6 -33 -13 -83 -20 -145 -3 -27 -8 -61
-10 -75 -7 -42 -14 -97 -35 -295 -11 -104 -22 -208 -25 -230 -2 -22 -7 -78
-10 -125 -4 -47 -8 -98 -10 -115 -2 -16 -7 -79 -10 -140 -4 -60 -8 -123 -10
-140 -27 -237 -26 -1506 0 -1820 2 -22 6 -89 10 -149 3 -60 8 -123 10 -140 2
-17 6 -67 10 -111 3 -44 8 -98 10 -120 2 -22 7 -67 10 -100 3 -33 7 -76 10
-95 2 -19 7 -55 9 -80 20 -171 38 -323 46 -370 5 -30 12 -75 15 -100 4 -25 15
-101 26 -170 11 -69 22 -141 25 -160 3 -19 12 -69 19 -110 8 -41 26 -138 40
-215 58 -314 140 -672 237 -1035 33 -124 64 -238 68 -255 45 -176 234 -755
343 -1050 108 -295 299 -764 412 -1010 159 -347 329 -688 470 -945 32 -58 71
-130 88 -160 286 -527 755 -1245 1155 -1770 175 -229 549 -692 582 -720 3 -3
36 -41 74 -85 56 -64 176 -199 231 -259 336 -363 645 -671 1006 -1001 85 -78
295 -261 384 -335 50 -41 97 -81 105 -89 39 -37 465 -372 620 -487 1171 -871
2453 -1563 3812 -2058 252 -91 274 -99 513 -176 732 -237 1580 -439 2290 -545
104 -15 305 -44 345 -49 190 -24 386 -46 445 -51 39 -3 84 -8 100 -10 17 -2
71 -7 120 -10 50 -4 97 -8 105 -10 8 -2 71 -7 140 -11 69 -3 138 -8 153 -9
230 -27 1454 -27 1812 0 28 2 91 7 140 10 50 3 113 7 140 10 28 2 82 7 120 10
90 7 232 21 400 40 394 44 948 132 1315 210 8 2 49 10 90 19 687 142 1468 371
2180 639 237 89 660 265 830 344 41 20 116 53 165 75 169 74 702 345 955 485
201 112 510 295 736 438 144 91 540 353 584 387 14 11 88 64 165 120 252 180
711 535 840 649 17 15 98 84 180 154 83 71 157 135 166 144 9 9 49 45 90 81
407 360 1009 977 1383 1420 504 597 941 1195 1329 1823 114 183 221 362 270
449 15 26 46 83 70 125 374 662 725 1424 994 2158 231 631 421 1282 567 1945
57 259 130 644 151 795 3 17 7 41 10 55 25 123 102 738 125 1005 5 66 12 143
15 170 2 28 7 95 11 150 3 55 7 116 9 135 27 274 27 1529 0 1820 -1 19 -6 82
-9 140 -4 58 -9 125 -11 150 -2 25 -7 83 -11 130 -3 47 -7 92 -9 100 -2 8 -6
49 -9 90 -4 41 -9 86 -11 100 -2 14 -7 54 -10 90 -18 192 -68 541 -121 850
-19 113 -38 219 -41 235 -43 251 -189 886 -269 1169 -14 50 -27 98 -29 106 -2
9 -35 122 -74 252 -548 1821 -1424 3498 -2613 5001 -84 105 -155 194 -158 197
-3 3 -49 57 -102 120 -161 194 -318 372 -493 560 -310 333 -714 730 -970 955
-44 39 -84 75 -90 81 -5 7 -77 69 -160 139 -82 70 -163 140 -180 154 -97 84
-406 328 -595 469 -69 52 -132 99 -141 106 -105 84 -626 438 -879 598 -177
111 -642 388 -653 388 -2 0 -42 22 -88 48 -161 93 -844 442 -863 442 -4 0 -30
12 -59 26 -361 177 -1064 457 -1567 624 -598 198 -1389 405 -1850 485 -19 3
-53 10 -75 15 -112 25 -651 111 -780 125 -33 4 -67 8 -75 10 -43 12 -524 62
-755 80 -44 3 -102 8 -130 10 -27 2 -106 7 -175 10 -69 4 -141 9 -160 12 -44
5 -1215 15 -1221 9z"/>
</g>
</svg>
